name analog
datacolumns 19
datarows 64
range 0.20500000000000002 0.23650000000000002
endheader
time	ground_force_vx	ground_force_vy	ground_force_vz	ground_force_px	ground_force_py	ground_force_pz	l_ground_force_vx	l_ground_force_vy	l_ground_force_vz	l_ground_force_px	l_ground_force_py	l_ground_force_pz	ground_torque_x	ground_torque_y	ground_torque_z	l_ground_torque_x	l_ground_torque_y	l_ground_torque_z
0.20500000000000002	-0.0	-0.0	-0.0	1.357159972190857	0.6327056884765625	-617.954833984375	-0.0	-0.0	-0.0	-0.0	-0.0	-0.0	-0.0	-0.0	-0.0	-0.0	-0.0	-0.0
0.20550000000000002	-0.0	-0.0	-0.0	1.3991498947143557	1.0226354598999023	-617.00537109375	-0.0	-0.0	-0.0	-0.0	-0.0	-0.0	-0.0	-0.0	-0.0	-0.0	-0.0	-0.0
0.20600000000000002	-0.0	-0.0	-0.0	0.9057050943374634	1.0695648193359375	-616.2989501953125	-0.0	-0.0	-0.0	-0.0	-0.0	-0.0	-0.0	-0.0	-0.0	-0.0	-0.0	-0.0
0.20650000000000002	-0.0	-0.0	-0.0	0.863212525844574	0.9751672148704528	-615.52001953125	-0.0	-0.0	-0.0	-0.0	-0.0	-0.0	-0.0	-0.0	-0.0	-0.0	-0.0	-0.0
0.20700000000000002	-0.0	-0.0	-0.0	0.4279530048370361	0.6893608570098877	-615.8519897460938	-0.0	-0.0	-0.0	-0.0	-0.0	-0.0	-0.0	-0.0	-0.0	-0.0	-0.0	-0.0
0.20750000000000002	-0.0	-0.0	-0.0	0.2317930161952972	0.2673912048339844	-615.0744018554688	-0.0	-0.0	-0.0	-0.0	-0.0	-0.0	-0.0	-0.0	-0.0	-0.0	-0.0	-0.0
0.20800000000000002	-0.0	-0.0	-0.0	0.2560985088348388	0.0653106719255447	-615.0294189453125	-0.0	-0.0	-0.0	-0.0	-0.0	-0.0	-0.0	-0.0	-0.0	-0.0	-0.0	-0.0
0.2085	-0.0	-0.0	-0.0	0.6832839846611023	-0.4695526361465454	-614.5765380859375	-0.0	-0.0	-0.0	-0.0	-0.0	-0.0	-0.0	-0.0	-0.0	-0.0	-0.0	-0.0
0.209	-0.0	-0.0	-0.0	0.4528295993804931	-0.5243489742279053	-614.9544677734375	-0.0	-0.0	-0.0	-0.0	-0.0	-0.0	-0.0	-0.0	-0.0	-0.0	-0.0	-0.0
0.2095	-0.0	-0.0	-0.0	0.858163595199585	-1.2817366123199463	-612.060791015625	-0.0	-0.0	-0.0	-0.0	-0.0	-0.0	-0.0	-0.0	-0.0	-0.0	-0.0	-0.0
0.21	-0.0	-0.0	-0.0	0.8197373151779175	-1.1345943212509155	-611.8698120117188	-0.0	-0.0	-0.0	-0.0	-0.0	-0.0	-0.0	-0.0	-0.0	-0.0	-0.0	-0.0
0.2105	-0.0	-0.0	-0.0	0.3810244798660278	-1.336956024169922	-610.0673217773438	-0.0	-0.0	-0.0	-0.0	-0.0	-0.0	-0.0	-0.0	-0.0	-0.0	-0.0	-0.0
0.211	-0.0	-0.0	-0.0	-0.0892105102539062	-1.20718252658844	-611.4844360351562	-0.0	-0.0	-0.0	-0.0	-0.0	-0.0	-0.0	-0.0	-0.0	-0.0	-0.0	-0.0
0.2115	-0.0	-0.0	-0.0	-0.1540805846452713	-0.6968685388565063	-609.6526489257812	-0.0	-0.0	-0.0	-0.0	-0.0	-0.0	-0.0	-0.0	-0.0	-0.0	-0.0	-0.0
0.212	-0.0	-0.0	-0.0	-0.1867875158786773	-0.7694423198699951	-608.4986572265625	-0.0	-0.0	-0.0	-0.0	-0.0	-0.0	-0.0	-0.0	-0.0	-0.0	-0.0	-0.0
0.2125	-0.0	-0.0	-0.0	-0.9323830604553224	-0.810820460319519	-608.4664306640625	-0.0	-0.0	-0.0	-0.0	-0.0	-0.0	-0.0	-0.0	-0.0	-0.0	-0.0	-0.0
0.213	-0.0	-0.0	-0.0	-0.575455904006958	-0.5592691898345947	-608.1137084960938	-0.0	-0.0	-0.0	-0.0	-0.0	-0.0	-0.0	-0.0	-0.0	-0.0	-0.0	-0.0
0.2135	-0.0	-0.0	-0.0	-0.913818061351776	0.1445423364639282	-607.981201171875	-0.0	-0.0	-0.0	-0.0	-0.0	-0.0	-0.0	-0.0	-0.0	-0.0	-0.0	-0.0
0.214	-0.0	-0.0	-0.0	-0.8580542206764221	0.1043703705072403	-608.6266479492188	-0.0	-0.0	-0.0	-0.0	-0.0	-0.0	-0.0	-0.0	-0.0	-0.0	-0.0	-0.0
0.2145	-0.0	-0.0	-0.0	0.1687235534191131	0.9213360548019408	-608.4906005859375	-0.0	-0.0	-0.0	-0.0	-0.0	-0.0	-0.0	-0.0	-0.0	-0.0	-0.0	-0.0
0.215	-0.0	-0.0	-0.0	-0.0892105102539062	0.351775050163269	-608.07763671875	-0.0	-0.0	-0.0	-0.0	-0.0	-0.0	-0.0	-0.0	-0.0	-0.0	-0.0	-0.0
0.2155	-0.0	-0.0	-0.0	1.0749750137329102	0.6341057419776917	-608.1759033203125	-0.0	-0.0	-0.0	-0.0	-0.0	-0.0	-0.0	-0.0	-0.0	-0.0	-0.0	-0.0
0.216	-0.0	-0.0	-0.0	1.452285885810852	0.8375201225280762	-609.0953369140625	-0.0	-0.0	-0.0	-0.0	-0.0	-0.0	-0.0	-0.0	-0.0	-0.0	-0.0	-0.0
0.2165	-0.0	-0.0	-0.0	0.8636460304260254	1.1871287822723389	-606.7493896484375	-0.0	-0.0	-0.0	-0.0	-0.0	-0.0	-0.0	-0.0	-0.0	-0.0	-0.0	-0.0
0.217	-0.0	-0.0	-0.0	1.0454721450805664	1.4651539325714111	-608.4854736328125	-0.0	-0.0	-0.0	-0.0	-0.0	-0.0	-0.0	-0.0	-0.0	-0.0	-0.0	-0.0
0.2175	-0.0	-0.0	-0.0	0.4573898315429687	1.4009720087051392	-608.23046875	-0.0	-0.0	-0.0	-0.0	-0.0	-0.0	-0.0	-0.0	-0.0	-0.0	-0.0	-0.0
0.218	-0.0	-0.0	-0.0	-0.5488378405570984	2.2166333198547363	-604.9895629882812	-0.0	-0.0	-0.0	-0.0	-0.0	-0.0	-0.0	-0.0	-0.0	-0.0	-0.0	-0.0
0.2185	-0.0	-0.0	-0.0	-1.4036128520965576	1.9222371578216555	-606.1038208007812	-0.0	-0.0	-0.0	-0.0	-0.0	-0.0	-0.0	-0.0	-0.0	-0.0	-0.0	-0.0
0.219	-0.0	-0.0	-0.0	-1.4273681640625	2.40652084350586	-605.70361328125	-0.0	-0.0	-0.0	-0.0	-0.0	-0.0	-0.0	-0.0	-0.0	-0.0	-0.0	-0.0
0.2195	-0.0	-0.0	-0.0	-2.2048473358154297	2.915910482406616	-603.5352783203125	-0.0	-0.0	-0.0	-0.0	-0.0	-0.0	-0.0	-0.0	-0.0	-0.0	-0.0	-0.0
0.22	-0.0	-0.0	-0.0	-2.179299116134644	2.775796175003052	-604.1396484375	-0.0	-0.0	-0.0	-0.0	-0.0	-0.0	-0.0	-0.0	-0.0	-0.0	-0.0	-0.0
0.2205	-0.0	-0.0	-0.0	-2.4598000049591064	2.432055950164795	-601.8701782226562	-0.0	-0.0	-0.0	-0.0	-0.0	-0.0	-0.0	-0.0	-0.0	-0.0	-0.0	-0.0
0.221	-0.0	-0.0	-0.0	-2.497894287109375	2.3430004119873047	-601.1123046875	-0.0	-0.0	-0.0	-0.0	-0.0	-0.0	-0.0	-0.0	-0.0	-0.0	-0.0	-0.0
0.2215	-0.0	-0.0	-0.0	-2.841082811355591	2.164822578430176	-599.400390625	-0.0	-0.0	-0.0	-0.0	-0.0	-0.0	-0.0	-0.0	-0.0	-0.0	-0.0	-0.0
0.222	-0.0	-0.0	-0.0	-3.373931646347046	2.049999237060547	-599.1973876953125	-0.0	-0.0	-0.0	-0.0	-0.0	-0.0	-0.0	-0.0	-0.0	-0.0	-0.0	-0.0
0.2225	-0.0	-0.0	-0.0	-3.554227113723755	1.9608688354492188	-599.0955200195312	-0.0	-0.0	-0.0	-0.0	-0.0	-0.0	-0.0	-0.0	-0.0	-0.0	-0.0	-0.0
0.223	-0.0	-0.0	-0.0	-4.575669765472412	1.6934776306152344	-600.3936157226562	-0.0	-0.0	-0.0	-0.0	-0.0	-0.0	-0.0	-0.0	-0.0	-0.0	-0.0	-0.0
0.2235	-0.0	-0.0	-0.0	-4.969794750213623	2.280200958251953	-599.7579345703125	-0.0	-0.0	-0.0	-0.0	-0.0	-0.0	-0.0	-0.0	-0.0	-0.0	-0.0	-0.0
0.224	-0.0	-0.0	-0.0	-5.415770530700684	2.573793172836304	-599.6559448242188	-0.0	-0.0	-0.0	-0.0	-0.0	-0.0	-0.0	-0.0	-0.0	-0.0	-0.0	-0.0
0.2245	-0.0	-0.0	-0.0	-5.178847312927246	3.2716970443725586	-601.4228515625	-0.0	-0.0	-0.0	-0.0	-0.0	-0.0	-0.0	-0.0	-0.0	-0.0	-0.0	-0.0
0.225	-0.0	-0.0	-0.0	-5.252843379974365	3.816986560821533	-604.3946533203125	-0.0	-0.0	-0.0	-0.0	-0.0	-0.0	-0.0	-0.0	-0.0	-0.0	-0.0	-0.0
0.2255	-0.0	-0.0	-0.0	-5.488790512084961	3.727524280548096	-607.4472045898438	-0.0	-0.0	-0.0	-0.0	-0.0	-0.0	-0.0	-0.0	-0.0	-0.0	-0.0	-0.0
0.226	-0.0	-0.0	-0.0	-5.164061546325684	4.424137115478516	-609.3397216796875	-0.0	-0.0	-0.0	-0.0	-0.0	-0.0	-0.0	-0.0	-0.0	-0.0	-0.0	-0.0
0.2265	-0.0	-0.0	-0.0	-4.962775707244873	3.324230432510376	-611.1319580078125	-0.0	-0.0	-0.0	-0.0	-0.0	-0.0	-0.0	-0.0	-0.0	-0.0	-0.0	-0.0
0.227	-0.0	-0.0	-0.0	-4.272430896759033	3.3243134021759038	-612.9104614257812	-0.0	-0.0	-0.0	-0.0	-0.0	-0.0	-0.0	-0.0	-0.0	-0.0	-0.0	-0.0
0.2275	-0.0	-0.0	-0.0	-4.675013065338135	3.6733181476593018	-614.4955444335938	-0.0	-0.0	-0.0	-0.0	-0.0	-0.0	-0.0	-0.0	-0.0	-0.0	-0.0	-0.0
0.228	-0.0	-0.0	-0.0	-4.798840999603272	3.2353196144104004	-615.3404541015625	-0.0	-0.0	-0.0	-0.0	-0.0	-0.0	-0.0	-0.0	-0.0	-0.0	-0.0	-0.0
0.2285	-0.0	-0.0	-0.0	-5.004810333251953	3.627640962600708	-615.7341918945312	-0.0	-0.0	-0.0	-0.0	-0.0	-0.0	-0.0	-0.0	-0.0	-0.0	-0.0	-0.0
0.229	-0.0	-0.0	-0.0	-4.9245285987854	3.3869552612304688	-616.3700561523438	-0.0	-0.0	-0.0	-0.0	-0.0	-0.0	-0.0	-0.0	-0.0	-0.0	-0.0	-0.0
0.2295	-0.0	-0.0	-0.0	-5.388094425201416	3.163579225540161	-617.2861328125	-0.0	-0.0	-0.0	-0.0	-0.0	-0.0	-0.0	-0.0	-0.0	-0.0	-0.0	-0.0
0.23	-0.0	-0.0	-0.0	-5.2819342613220215	2.5763721466064453	-617.1119995117188	-0.0	-0.0	-0.0	-0.0	-0.0	-0.0	-0.0	-0.0	-0.0	-0.0	-0.0	-0.0
0.2305	-0.0	-0.0	-0.0	-5.022762298583984	2.238646507263184	-616.2333374023438	-0.0	-0.0	-0.0	-0.0	-0.0	-0.0	-0.0	-0.0	-0.0	-0.0	-0.0	-0.0
0.231	-0.0	-0.0	-0.0	-5.484977722167969	2.3173904418945312	-615.604248046875	-0.0	-0.0	-0.0	-0.0	-0.0	-0.0	-0.0	-0.0	-0.0	-0.0	-0.0	-0.0
0.2315	-0.0	-0.0	-0.0	-5.239845275878906	2.2090182304382324	-615.5474853515625	-0.0	-0.0	-0.0	-0.0	-0.0	-0.0	-0.0	-0.0	-0.0	-0.0	-0.0	-0.0
0.232	-0.0	-0.0	-0.0	-5.736667156219482	2.015208959579468	-613.2581787109375	-0.0	-0.0	-0.0	-0.0	-0.0	-0.0	-0.0	-0.0	-0.0	-0.0	-0.0	-0.0
0.2325	-0.0	-0.0	-0.0	-6.1282501220703125	2.178872346878052	-613.286865234375	-0.0	-0.0	-0.0	-0.0	-0.0	-0.0	-0.0	-0.0	-0.0	-0.0	-0.0	-0.0
0.233	-0.0	-0.0	-0.0	-6.4778265953063965	2.0974209308624268	-611.0298461914062	-0.0	-0.0	-0.0	-0.0	-0.0	-0.0	-0.0	-0.0	-0.0	-0.0	-0.0	-0.0
0.2335	-0.0	-0.0	-0.0	-6.169438362121582	2.6808624267578125	-611.10986328125	-0.0	-0.0	-0.0	-0.0	-0.0	-0.0	-0.0	-0.0	-0.0	-0.0	-0.0	-0.0
0.234	-0.0	-0.0	-0.0	-5.798683166503906	2.6671860218048096	-608.5556640625	-0.0	-0.0	-0.0	-0.0	-0.0	-0.0	-0.0	-0.0	-0.0	-0.0	-0.0	-0.0
0.23450000000000001	-0.0	-0.0	-0.0	-5.70947265625	2.900599241256714	-608.284912109375	-0.0	-0.0	-0.0	-0.0	-0.0	-0.0	-0.0	-0.0	-0.0	-0.0	-0.0	-0.0
0.23500000000000001	-0.0	-0.0	-0.0	-5.201828956604004	3.490985155105591	-606.0567626953125	-0.0	-0.0	-0.0	-0.0	-0.0	-0.0	-0.0	-0.0	-0.0	-0.0	-0.0	-0.0
0.23550000000000001	-0.0	-0.0	-0.0	-5.414161682128906	3.660513401031494	-604.8876342773438	-0.0	-0.0	-0.0	-0.0	-0.0	-0.0	-0.0	-0.0	-0.0	-0.0	-0.0	-0.0
0.23600000000000002	-0.0	-0.0	-0.0	-6.121828079223633	4.2009992599487305	-603.36474609375	-0.0	-0.0	-0.0	-0.0	-0.0	-0.0	-0.0	-0.0	-0.0	-0.0	-0.0	-0.0
0.23650000000000002	-0.0	-0.0	-0.0	-6.032778263092041	3.977361917495728	-601.5756225585938	-0.0	-0.0	-0.0	-0.0	-0.0	-0.0	-0.0	-0.0	-0.0	-0.0	-0.0	-0.0
